<svg width="90" height="66" viewBox="0 0 90 66" fill="none" xmlns="http://www.w3.org/2000/svg">
<path d="M7.0892 1.16833C3.39574 1.16833 0.400391 4.16349 0.400391 7.85695C0.400391 11.5504 3.39574 14.5458 7.0892 14.5458C10.7827 14.5458 13.778 11.5502 13.778 7.85695C13.778 4.16349 10.7827 1.16833 7.0892 1.16833Z" fill="#585858"/>
<path d="M28.9802 15.7143H81.7419C86.0815 15.7143 89.5991 12.1967 89.5991 7.85717C89.5991 3.51766 86.0815 0 81.7419 0H28.9802C24.6407 0 21.123 3.51766 21.123 7.85717C21.123 12.1967 24.6407 15.7143 28.9802 15.7143Z" fill="#585858"/>
<path d="M7.0892 25.9302C3.39574 25.9302 0.400391 28.9254 0.400391 32.6189C0.400391 36.3123 3.39574 39.3077 7.0892 39.3077C10.7827 39.3077 13.778 36.3123 13.778 32.6189C13.778 28.9254 10.7827 25.9302 7.0892 25.9302Z" fill="#585858"/>
<path d="M81.7421 24.7619H28.9802C24.6407 24.7619 21.123 28.2796 21.123 32.6191C21.123 36.9586 24.6407 40.4762 28.9802 40.4762H81.7419C86.0815 40.4762 89.5991 36.9586 89.5991 32.6191C89.5991 28.2796 86.0815 24.7619 81.7421 24.7619Z" fill="#585858"/>
<path d="M7.0892 50.6921C3.39574 50.6921 0.400391 53.6873 0.400391 57.3808C0.400391 61.0742 3.39574 64.0696 7.0892 64.0696C10.7827 64.0696 13.778 61.0742 13.778 57.3808C13.778 53.6873 10.7827 50.6921 7.0892 50.6921Z" fill="#585858"/>
<path d="M81.7421 49.5236H28.9802C24.6407 49.5236 21.123 53.0412 21.123 57.3807C21.123 61.7202 24.6407 65.2379 28.9802 65.2379H81.7419C86.0815 65.2379 89.5991 61.7202 89.5991 57.3807C89.5991 53.0412 86.0815 49.5236 81.7421 49.5236Z" fill="#585858"/>
</svg>
