<svg width="90" height="90" viewBox="0 0 90 90" fill="none" xmlns="http://www.w3.org/2000/svg">
<path d="M20.4545 49.0909V65.4545C20.4545 67.7138 22.2862 69.5455 24.5454 69.5455H40.9091C41.994 69.5455 43.0344 69.1143 43.8016 68.3471L88.8014 23.3471C90.399 21.7495 90.399 19.1594 88.8014 17.5617L72.4377 1.19809C71.6711 0.431182 70.6303 0 69.5454 0C68.4605 0 67.4198 0.431182 66.6529 1.19836L21.6529 46.1984C20.8854 46.9653 20.4545 48.006 20.4545 49.0909ZM28.6363 50.7854L69.5454 9.87627L80.1237 20.4545L39.2146 61.3636H28.6363V50.7854Z" fill="#BC4031"/>
<path d="M85.9091 40.9094C83.6498 40.9094 81.8182 42.741 81.8182 45.0003V81.8182H8.18182V8.18182H45C47.2593 8.18182 49.0909 6.35018 49.0909 4.09091C49.0909 1.83164 47.2593 0 45 0H4.09091C1.83164 0 0 1.83164 0 4.09091V85.9091C0 88.1684 1.83164 90 4.09091 90H85.9091C88.1684 90 90 88.1684 90 85.9091V45.0003C90 42.7407 88.1684 40.9094 85.9091 40.9094Z" fill="#BC4031"/>
</svg>
