<svg width="24" height="24" viewBox="0 0 24 24" fill="none" xmlns="http://www.w3.org/2000/svg">
<path d="M20.7659 0H3.23407C1.44798 0 0 1.44792 0 3.23407V20.766C0 22.5521 1.44792 24.0001 3.23407 24.0001H11.8807L11.8954 15.4237H9.66728C9.37772 15.4237 9.1427 15.1896 9.14159 14.9L9.1309 12.1355C9.12979 11.8444 9.36551 11.6078 9.65666 11.6078H11.8807V8.93657C11.8807 5.83665 13.774 4.14872 16.5393 4.14872H18.8085C19.0988 4.14872 19.3342 4.38409 19.3342 4.67448V7.00552C19.3342 7.29578 19.099 7.5311 18.8088 7.53127L17.4162 7.53192C15.9123 7.53192 15.6211 8.24654 15.6211 9.29529V11.6078H18.9256C19.2405 11.6078 19.4848 11.8828 19.4477 12.1955L19.12 14.96C19.0887 15.2245 18.8644 15.4239 18.598 15.4239H15.6359L15.6211 24.0002H20.766C22.5521 24.0002 24 22.5523 24 20.7662V3.23407C23.9999 1.44792 22.552 0 20.7659 0Z" fill="#0C1825"/>
</svg>
