<svg width="24" height="24" viewBox="0 0 24 24" fill="none" xmlns="http://www.w3.org/2000/svg">
<path d="M14.1221 10.4584C13.6463 9.79224 12.866 9.35449 11.9905 9.35449C11.115 9.35449 10.3347 9.79224 9.85886 10.4584C9.55434 10.8961 9.36401 11.429 9.36401 12C9.36401 13.4465 10.544 14.6265 11.9905 14.6265C13.437 14.6265 14.617 13.4465 14.617 12C14.617 11.429 14.4267 10.8961 14.1221 10.4584Z" fill="black"/>
<path d="M15.7779 10.4775C15.9682 10.8582 16.0824 11.4672 16.0824 12.0001C16.0824 14.246 14.2553 16.0921 11.9904 16.0921C9.72556 16.0921 7.89844 14.265 7.89844 12.0001C7.89844 11.4482 8.01263 10.8582 8.20296 10.4775H5.90002V16.587C5.90002 17.3863 6.60423 18.0905 7.40359 18.0905H16.5773C17.3766 18.0905 18.0808 17.3863 18.0808 16.587V10.4775H15.7779Z" fill="black"/>
<path d="M17.3958 6.25194H15.188V8.78327H17.7003V6.5755V6.23291L17.3958 6.25194Z" fill="black"/>
<path d="M17.9667 0.00927734H6.01427C2.70262 0.00927734 0 2.71189 0 6.02355V17.995C0 21.2876 2.70262 23.9902 6.01427 23.9902H17.9857C21.2974 23.9902 24 21.2876 24 17.976V6.02355C23.981 2.71189 21.2784 0.00927734 17.9667 0.00927734ZM19.4132 10.4581V16.5866C19.4132 18.1853 18.1761 19.4224 16.5773 19.4224H7.40365C5.80492 19.4224 4.5678 18.1853 4.5678 16.5866V10.4581V7.41293C4.5678 5.81419 5.80492 4.57708 7.40365 4.57708H16.5773C18.1761 4.57708 19.4132 5.81419 19.4132 7.41293V10.4581Z" fill="#0C1825"/>
</svg>
