<svg width="24" height="24" viewBox="0 0 24 24" fill="none" xmlns="http://www.w3.org/2000/svg">
<path d="M17.9667 0H6.01427C2.70262 0 0 2.70262 0 6.01427V17.9857C0 21.2783 2.70262 23.981 6.01427 23.981H17.9857C21.2974 23.981 24 21.2783 24 17.9667V6.01427C23.981 2.70262 21.2784 0 17.9667 0ZM17.9477 8.98335C17.9477 9.11657 17.9477 9.2498 17.9477 9.38303C17.9477 13.3799 14.8644 17.9857 9.21174 17.9857C7.47978 17.9857 5.86201 17.4909 4.51071 16.6344C4.75813 16.6534 4.98652 16.6725 5.23394 16.6725C6.68041 16.6725 7.99366 16.1967 9.04044 15.3783C7.68914 15.3592 6.56622 14.4837 6.16653 13.2847C6.35686 13.3228 6.54718 13.3418 6.73751 13.3418C7.023 13.3418 7.30849 13.3037 7.55591 13.2276C6.18557 12.9421 5.13878 11.724 5.13878 10.2585V10.2205C5.51943 10.4488 6.01427 10.5821 6.50912 10.6011C5.69072 10.0682 5.13878 9.1356 5.13878 8.08882C5.13878 7.53687 5.29104 7.023 5.55749 6.56622C7.0801 8.39334 9.32593 9.59239 11.8763 9.72561C11.8192 9.49722 11.8002 9.26883 11.8002 9.04044C11.8002 7.36558 13.1705 6.01427 14.8644 6.01427C15.7399 6.01427 16.5393 6.37589 17.1102 6.9659C17.8144 6.83267 18.4615 6.58525 19.0515 6.22363C18.8232 6.92783 18.3283 7.51784 17.7002 7.89849C18.3283 7.82236 18.9183 7.6701 19.4703 7.42268C19.0515 8.03172 18.5377 8.56463 17.9477 8.98335Z" fill="#0C1825"/>
</svg>
