<svg width="90" height="90" viewBox="0 0 90 90" fill="none" xmlns="http://www.w3.org/2000/svg">
<path d="M29.1419 27.1475C29.1419 18.3908 36.2396 11.2881 44.9988 11.2881C53.763 11.2881 60.8556 18.3908 60.8556 27.1475C60.8556 35.9092 53.763 43.0069 44.9988 43.0069C36.2396 43.0069 29.1419 35.9118 29.1419 27.1475ZM89.9295 57.0004L87.7132 43.7129C87.3148 41.3075 85.2901 39.2904 82.9327 38.7105C80.8248 40.5763 78.0614 41.7134 75.0257 41.7134C71.9925 41.7134 69.2265 40.5738 67.1212 38.7105C64.7562 39.2879 62.7366 41.3075 62.3382 43.7129L62.2852 44.0255C60.9691 42.7573 59.3352 41.8042 57.5753 41.373C54.2219 44.3382 49.8297 46.1535 45.0013 46.1535C40.1729 46.1535 35.7807 44.3382 32.4273 41.373C30.6674 41.8042 29.0335 42.7573 27.7174 44.0255L27.6644 43.7129C27.266 41.3075 25.2389 39.2904 22.8814 38.7105C20.7761 40.5763 18.0101 41.7134 14.9769 41.7134C11.9412 41.7134 9.17779 40.5738 7.06993 38.7105C4.70994 39.2879 2.68781 41.3075 2.28943 43.7129L0.0731547 57.0004C-0.403383 59.8521 1.57589 62.1869 4.46285 62.1869H22.6721L21.2904 70.4645C20.534 75.0004 23.6807 78.7119 28.2771 78.7119H61.723C66.3194 78.7119 69.4661 74.9929 68.7097 70.4645L67.328 62.1869H85.5372C88.4267 62.1818 90.4035 59.8521 89.9295 57.0004ZM75.0232 39.7417C80.5298 39.7417 84.9926 35.2789 84.9926 29.7722C84.9926 24.2681 80.5273 19.8028 75.0232 19.8028C69.519 19.8028 65.0562 24.2681 65.0562 29.7722C65.0562 35.2789 69.5241 39.7417 75.0232 39.7417ZM14.9719 39.7417C20.476 39.7417 24.9388 35.2789 24.9388 29.7722C24.9388 24.2681 20.4735 19.8028 14.9719 19.8028C9.46523 19.8028 5.00242 24.2681 5.00242 29.7722C5.00242 35.2789 9.46775 39.7417 14.9719 39.7417Z" fill="#CF850F"/>
</svg>
